#!OML:ASF I:\Random Stuff\random\construction\7_22_03\Session 2\subj1.ASF
:FULLY-SPECIFIED
:DEGREES
392
root -2.09245 17.7826 6.5366 0.33459 67.0932 -11.2784
lowerback 3.88956 0.999899 1.82215
upperback 0.0149101 1.43151 0.559651
thorax -2.13448 0.699585 -0.527787
lowerneck -22.4498 2.03627 2.1837
upperneck 44.4752 4.02098 0.163594
head 22.7051 2.34448 0.888809
rclavicle 2.20154e-014 1.2921e-014
rhumerus -19.3556 19.2048 -69.452
rradius 69.1247
rwrist -32.2709
rhand -22.3786 7.22134
rfingers 7.12502
rthumb 4.04315 -22.72
lclavicle 2.20154e-014 1.2921e-014
lhumerus -7.15984 -31.1372 69.3724
lradius 70.3263
lwrist 44.0112
lhand -10.3888 67.2228
lfingers 7.12502
lthumb -164.391 83.387
rfemur -10.6532 10.4247 22.1908
rtibia 10.8265
rfoot -7.89535 -12.1562
rtoes -18.0253
lfemur -17.6622 -8.6268 -11.3314
ltibia 25.4424
lfoot -16.2225 11.8281
ltoes -30.1547
393
root -2.08254 17.7795 6.52157 0.325549 67.089 -11.1818
lowerback 3.69198 0.99793 1.83029
upperback -0.0347208 1.42544 0.578322
thorax -2.07508 0.696765 -0.509406
lowerneck -22.5449 2.09123 2.3293
upperneck 44.4737 4.11773 -0.00727819
head 22.7587 2.3812 0.795576
rclavicle 1.1281e-014 -2.56432e-014
rhumerus -19.2316 19.1293 -69.2849
rradius 68.8845
rwrist -31.921
rhand -22.1957 6.55586
rfingers 7.12502
rthumb 4.21981 -23.3821
lclavicle 1.1281e-014 -2.56432e-014
lhumerus -7.4339 -31.0403 69.6455
lradius 70.3581
lwrist 43.5115
lhand -11.7225 67.3452
lfingers 7.12502
lthumb -165.676 83.169
rfemur -10.5553 10.4968 22.1068
rtibia 10.8949
rfoot -7.89804 -12.2727
rtoes -18.6033
lfemur -17.544 -8.50601 -11.4706
ltibia 25.4514
lfoot -16.2303 11.7003
ltoes -30.2322
394
root -2.0713 17.7773 6.50826 0.367632 67.0592 -10.9698
lowerback 3.53518 1.02119 1.80653
upperback -0.0785088 1.45142 0.553155
thorax -2.03148 0.709855 -0.520558
lowerneck -22.6272 2.14189 2.39341
upperneck 44.4372 4.14627 0.0135745
head 22.7609 2.40454 0.803078
rclavicle -2.98674e-014 -9.14409e-015
rhumerus -19.1409 18.9401 -69.1723
rradius 68.5883
rwrist -31.7729
rhand -22.0772 5.63475
rfingers 7.12502
rthumb 4.33426 -24.3009
lclavicle -2.98674e-014 -9.14409e-015
lhumerus -7.63984 -30.8765 69.8823
lradius 70.2849
lwrist 43.6232
lhand -11.5191 67.1686
lfingers 7.12502
lthumb -165.48 83.3595
rfemur -10.3936 10.5341 21.9893
rtibia 10.9542
rfoot -7.91064 -12.3315
rtoes -19.1709
lfemur -17.3354 -8.55935 -11.6594
ltibia 25.4524
lfoot -16.2478 11.705
ltoes -30.0089
395
root -2.06146 17.7752 6.49493 0.411721 67.0391 -10.7611
lowerback 3.38733 1.04598 1.77017
upperback -0.11455 1.47902 0.522429
thorax -1.98505 0.723932 -0.530419
lowerneck -22.7151 2.15889 2.3855
upperneck 44.3652 4.08628 0.154588
head 22.7221 2.39835 0.865408
rclavicle -5.1038e-014 7.95139e-015
rhumerus -19.1749 18.3609 -69.1207
rradius 68.4948
rwrist -31.7288
rhand -21.465 4.62099
rfingers 7.12502
rthumb 4.92532 -25.3018
lclavicle -5.1038e-014 7.95139e-015
lhumerus -7.69501 -30.5234 70.0471
lradius 70.0187
lwrist 44.1444
lhand -10.9489 67.0291
lfingers 7.12502
lthumb -164.93 83.5394
rfemur -10.2301 10.6544 21.8631
rtibia 10.9988
rfoot -7.9278 -12.4813
rtoes -19.2303
lfemur -17.1506 -8.54567 -11.8451
ltibia 25.4531
lfoot -16.2552 11.632
ltoes -29.7477
396
root -2.0535 17.7725 6.48009 0.34375 67.0219 -10.6851
lowerback 3.25304 1.05983 1.7711
upperback -0.145581 1.49464 0.519413
thorax -1.94115 0.731873 -0.5323
lowerneck -22.8242 2.15976 2.3822
upperneck 44.2771 4.04016 0.200774
head 22.6835 2.38401 0.878294
rclavicle -8.11041e-014 -5.36719e-015
rhumerus -19.2917 17.3608 -69.1151
rradius 68.5567
rwrist -31.624
rhand -20.0438 3.52203
rfingers 7.12502
rthumb 6.29752 -26.3644
lclavicle -8.11041e-014 -5.36719e-015
lhumerus -7.72382 -29.9322 70.2281
lradius 69.7056
lwrist 44.9431
lhand -9.6259 66.9669
lfingers 7.12502
lthumb -163.656 83.7018
rfemur -10.0645 10.797 21.7911
rtibia 11.0043
rfoot -7.93097 -12.634
rtoes -19.0477
lfemur -17.0007 -8.30741 -11.9858
ltibia 25.4637
lfoot -16.2599 11.4109
ltoes -29.8663
